<svg width="234" height="70" viewBox="0 0 234 70" fill="none" xmlns="http://www.w3.org/2000/svg">
<path d="M5 63H29.0482C32.7469 63 36.1436 60.9584 37.8791 57.6921L59.5 17" stroke="#FF6584" stroke-width="10" stroke-linecap="round" stroke-linejoin="round"/>
<path d="M49 13.2107L64.8622 5.69245L67.9103 22.5956" stroke="#FF6584" stroke-width="10" stroke-linecap="round" stroke-linejoin="round"/>
<path d="M87.96 30.68C90.76 30.68 93.04 31.4667 94.8 33.04C96.56 34.5867 97.44 36.56 97.44 38.96C97.44 41.2533 96.6267 43.1867 95 44.76C93.4 46.3067 91.32 47.12 88.76 47.2H83.32V54.56L88 55.12L87.96 57H76.44L76.2 55.72L79.6 54.48V33.08L76.76 32.92L76.8 31L87.96 30.68ZM87.4 44.88C89.4 44.88 90.8933 44.2933 91.88 43.12C92.8667 41.9467 93.36 40.52 93.36 38.84C93.36 37.56 93.0933 36.4 92.56 35.36C92.0267 34.2933 91.2533 33.52 90.24 33.04L83.32 33.64V44.52C84.92 44.76 86.28 44.88 87.4 44.88ZM104.282 34.08C102.976 33.52 101.949 32.72 101.202 31.68C101.896 30.24 102.709 29.2267 103.642 28.64C104.842 29.12 105.842 29.92 106.642 31.04C106.216 32.2667 105.429 33.28 104.282 34.08ZM105.882 54.44C107.216 54.6 108.176 54.8133 108.762 55.08L108.522 57H99.4822L99.2822 55.68C99.9222 55.36 100.936 54.9867 102.322 54.56V40.52L99.3222 40.76L98.8422 38.88C100.629 38.1067 102.442 37.6933 104.282 37.64L105.882 39.04V54.44ZM118.01 54.28C118.784 54.28 120.01 53.9733 121.69 53.36L122.37 55.2L117.17 57.6C116.264 57.6533 115.357 57.32 114.45 56.6C113.57 55.8533 113.13 55.0533 113.13 54.2V41.28L110.65 41.32L110.37 39.4C111.224 39.0267 112.17 38.72 113.21 38.48L114.81 33.44H116.69V38.28H122.29L122.45 39.44L120.57 41.36H116.69V52.12C116.69 52.9467 116.784 53.52 116.97 53.84C117.157 54.1333 117.504 54.28 118.01 54.28ZM133.601 57.6C130.721 57.6267 128.415 56.7333 126.681 54.92C124.948 53.08 124.081 50.6533 124.081 47.64C124.081 44.68 124.935 42.2533 126.641 40.36C128.375 38.44 130.561 37.48 133.201 37.48C135.441 37.48 137.468 38.36 139.281 40.12L137.161 42.96C134.815 41.1467 132.521 40.16 130.281 40C128.628 41.92 127.801 44.2 127.801 46.84C127.801 49.1333 128.361 51.0133 129.481 52.48C130.628 53.92 132.201 54.64 134.201 54.64C135.588 54.64 136.975 54.3333 138.361 53.72L139.041 55.4L133.601 57.6ZM159.723 54.44C161.056 54.6 162.016 54.8133 162.603 55.08L162.363 57H154.083L153.883 55.68L156.163 54.8V45.16C156.163 42.28 155.309 40.84 153.603 40.84C152.109 40.84 150.083 41.8 147.523 43.72V54.48C148.643 54.6133 149.509 54.8133 150.123 55.08L149.883 57H141.203L141.003 55.68L143.963 54.6V30.48L140.963 30.72L140.483 28.84C142.269 28.0667 144.083 27.6533 145.923 27.6L147.523 29V41.56C151.443 38.9467 154.109 37.64 155.523 37.64C156.296 37.7733 157.069 38.1733 157.843 38.84C158.643 39.48 159.149 40.1467 159.363 40.84C159.603 41.5333 159.723 42.8267 159.723 44.72V54.44Z" fill="#1E90FF"/>
<path d="M177.038 54.72L180.318 55.12L180.278 57H170.438L170.198 55.72L173.318 54.56V46.92L165.878 33.16L163.398 32.88L163.438 31H172.518L172.758 32.28C172.118 32.6 171.225 32.9333 170.078 33.28L174.438 41.48L175.478 44.72H175.678L181.358 33.24L178.198 32.88L178.238 31H187.038L187.278 32.28C186.345 32.7067 185.398 33.0533 184.438 33.32L177.038 47.04V54.72ZM185.253 47.56C185.253 44.5733 186.093 42.1467 187.773 40.28C189.48 38.4133 191.653 37.48 194.293 37.48C196.906 37.48 199.026 38.44 200.653 40.36C202.28 42.28 203.093 44.76 203.093 47.8C203.093 50.8133 202.293 53.24 200.693 55.08C199.093 56.8933 196.986 57.8 194.373 57.8C191.733 57.8 189.546 56.84 187.813 54.92C186.106 53 185.253 50.5467 185.253 47.56ZM196.733 54.92C198.466 53.7733 199.333 51.5467 199.333 48.24C199.333 45.8667 198.893 43.8933 198.013 42.32C197.133 40.7467 195.786 39.96 193.973 39.96C192.773 39.96 191.76 40.2533 190.933 40.84C189.68 42.3333 189.053 44.4267 189.053 47.12C189.053 49.4133 189.533 51.3333 190.493 52.88C191.48 54.4267 192.92 55.2 194.813 55.2C195.426 55.2 196.066 55.1067 196.733 54.92ZM226.422 55.76L222.382 57.6C221.955 57.5467 221.422 57.2133 220.782 56.6C220.168 55.9867 219.742 55.3333 219.502 54.64C218.168 55.4933 216.755 56.2 215.262 56.76C213.768 57.32 212.608 57.6 211.782 57.6C210.315 57.28 209.142 56.4133 208.262 55C207.835 54.3867 207.608 53.1733 207.582 51.36V40.52L204.582 40.76L204.102 38.88C205.888 38.1067 207.702 37.6933 209.542 37.64L211.142 39.04V51.08C211.222 53.3733 212.102 54.52 213.782 54.52C215.248 54.52 217.115 53.8267 219.382 52.44V40.52L216.382 40.76L215.902 38.88C217.688 38.1067 219.502 37.6933 221.342 37.64L222.942 39.04V53.56C222.942 54.0933 223.288 54.36 223.982 54.36C224.382 54.36 224.995 54.24 225.822 54L226.422 55.76Z" fill="#FF6584"/>
<path d="M11 51H27.5455L39 32" stroke="#1E90FF" stroke-width="6" stroke-linecap="round" stroke-linejoin="round"/>
</svg>
